<?xml version="1.0" encoding="UTF-8" standalone="no"?>
<!DOCTYPE svg PUBLIC "-//W3C//DTD SVG 1.1//EN" "http://www.w3.org/Graphics/SVG/1.1/DTD/svg11.dtd">
<svg width="100%" height="100%" viewBox="0 0 512 512" version="1.1" xmlns="http://www.w3.org/2000/svg" xmlns:xlink="http://www.w3.org/1999/xlink" xml:space="preserve" xmlns:serif="http://www.serif.com/" style="fill-rule:evenodd;clip-rule:evenodd;stroke-linejoin:round;stroke-miterlimit:2;">
    <path d="M467,91L237.25,91L202.722,506.796C208.79,509.83 215.316,512 222.485,512L467,512C491.814,512 512,491.814 512,467L512,136C512,111.186 491.814,91 467,91Z" style="fill:rgb(82,175,253);fill-rule:nonzero;"/>
    <path d="M169.867,407.86L177.836,472.581C179.436,485.435 188.136,499.503 202.722,506.796C231.889,475.422 212.336,495.455 281.551,421L169.867,407.86Z" style="fill:rgb(77,151,255);fill-rule:nonzero;"/>
    <path d="M281.551,421C286.458,415.392 290.762,411.627 289.604,403.905L244.164,39.419C241.366,16.948 222.162,0 199.516,0L45,0C20.186,0 0,20.186 0,45L0,376C0,400.814 20.186,421 45,421L281.551,421Z" style="fill:rgb(82,175,253);fill-rule:nonzero;"/>
    <path d="M436,226L391,226L391,211C391,202.709 384.291,196 376,196C367.709,196 361,202.709 361,211L361,226L316,226C307.709,226 301,232.709 301,241C301,249.291 307.709,256 316,256L320.006,256C328.541,283.383 341.076,304.81 355.142,321.702C344.123,331.776 333.34,340.041 321.624,349.296C315.165,354.467 314.11,363.9 319.296,370.375C324.458,376.84 333.928,377.889 340.374,372.704C353.104,362.657 364.053,354.248 376,343.283C387.947,354.249 398.896,362.658 411.624,372.704C418.072,377.889 427.542,376.84 432.704,370.375C437.89,363.9 436.835,354.467 430.374,349.296C418.659,340.041 407.876,331.776 396.857,321.702C410.923,304.811 423.459,283.384 431.993,256L436,256C444.291,256 451,249.291 451,241C451,232.709 444.291,226 436,226ZM376,299.467C366.466,287.483 357.851,273.398 351.374,256L400.626,256C394.149,273.399 385.534,287.483 376,299.467Z" style="fill:white;fill-rule:nonzero;"/>
    <g transform="matrix(0.702821,-0.573837,0.573837,0.702821,-69.6441,81.6932)">
        <path d="M86.578,154.012C86.578,144.682 79.003,137.108 69.674,137.108C60.344,137.108 52.769,144.682 52.769,154.012L52.769,326.304C52.769,335.633 60.344,343.208 69.674,343.208C79.003,343.208 86.578,335.633 86.578,326.304L86.578,154.012Z" style="fill:white;"/>
    </g>
    <g transform="matrix(0.701967,0.574883,-0.574883,0.701967,206.2,1.78941)">
        <path d="M86.578,154.012C86.578,144.682 79.003,137.108 69.674,137.108C60.344,137.108 52.769,144.682 52.769,154.012L52.769,326.304C52.769,335.633 60.344,343.208 69.674,343.208C79.003,343.208 86.578,335.633 86.578,326.304L86.578,154.012Z" style="fill:white;"/>
    </g>
</svg>
